<svg viewBox="0 0 500 300" preserveAspectRatio="none">
    <polygon points="0,0 0,75 62.5,75" fill="#000000"/>
    <polygon points="500,0 500,75 437.5,75" fill="#000000"/>
    <polygon points="0,75 0,150 125,150 62.5,75" fill="#959595"/>
    <polygon points="500,75 500,150 375,150 437.5,75" fill="#959595"/>
    <polygon points="0,150 0,225 187.5,225 125,150" fill="#ffffff"/>
    <polygon points="500,150 500,225 312.5,225 375,150" fill="#ffffff"/>
    <polygon points="0,225 0,300 250,300 187.5,225" fill="#087d16"/>
    <polygon points="500,225 500,300 250,300 312.5,225" fill="#087d16"/>

    <polygon points="0,0 500,0 437.5,75 62.5,75" fill="#087d16"/>
    <polygon points="62.5,75 437,75 375,150 125,150" fill="#ffffff"/>
    <polygon points="125,150 375,150 312.5,225 187.5,225" fill="#959595"/>
    <polygon points="187.5,225 312.5,225 250,300" fill="#000000"/>
</svg>