<svg>
    <polygon points="0,0 0,75 62.5,75" fill="#000000"/>
    <polygon points="500,0 500,75 437.5,75" fill="#000000"/>
    <polygon points="0,75 0,150 125,150 62.5,75" fill="#fefefe"/>
    <polygon points="500,75 500,150 375,150 437.5,75" fill="#fefefe"/>
    <polygon points="0,150 0,225 187.5,225 125,150" fill="#a9a9a9"/>
    <polygon points="500,150 500,225 312.5,225 375,150" fill="#a9a9a9"/>
    <polygon points="0,225 0,300 250,300 187.5,225" fill="#800080"/>
    <polygon points="500,225 500,300 250,300 312.5,225" fill="#800080"/>
</svg>